<mxfile host="app.diagrams.net" agent="Mozilla/5.0 (Windows NT 10.0; Win64; x64) AppleWebKit/537.36 (KHTML, like Gecko) Chrome/141.0.0.0 Safari/537.36" version="28.2.7">
  <diagram name="Page-1" id="KGAV3yRDnGRSm5ms9nAh">
    <mxGraphModel dx="2814" dy="1137" grid="1" gridSize="10" guides="1" tooltips="1" connect="1" arrows="1" fold="1" page="1" pageScale="1" pageWidth="850" pageHeight="1100" math="0" shadow="0">
      <root>
        <mxCell id="0" />
        <mxCell id="1" parent="0" />
        <mxCell id="a19_c-hU44nwaNDx6dK8-7" value="" style="group" vertex="1" connectable="0" parent="1">
          <mxGeometry x="-550" y="80" width="220" height="250" as="geometry" />
        </mxCell>
        <mxCell id="a19_c-hU44nwaNDx6dK8-5" value="" style="verticalLabelPosition=bottom;html=1;verticalAlign=top;align=center;strokeColor=none;fillColor=#00BEF2;shape=mxgraph.azure.computer;pointerEvents=1;movable=1;resizable=1;rotatable=1;deletable=1;editable=1;locked=0;connectable=1;" vertex="1" parent="a19_c-hU44nwaNDx6dK8-7">
          <mxGeometry y="101.85185185185185" width="200" height="148.14814814814815" as="geometry" />
        </mxCell>
        <mxCell id="a19_c-hU44nwaNDx6dK8-6" value="" style="shape=image;html=1;verticalAlign=top;verticalLabelPosition=bottom;labelBackgroundColor=#ffffff;imageAspect=0;aspect=fixed;image=https://icons.diagrams.net/icon-cache1/Web_browsers-2003/Firefox-1122.png;movable=1;resizable=1;rotatable=1;deletable=1;editable=1;locked=0;connectable=1;" vertex="1" parent="a19_c-hU44nwaNDx6dK8-7">
          <mxGeometry x="63.63636363636363" y="9.25925925925926" width="72.72727272727272" height="72.72727272727272" as="geometry" />
        </mxCell>
        <mxCell id="a19_c-hU44nwaNDx6dK8-9" value="" style="shape=actor;whiteSpace=wrap;html=1;fillStyle=solid;fillColor=light-dark(#FFFFFF,#3B82F6);" vertex="1" parent="a19_c-hU44nwaNDx6dK8-7">
          <mxGeometry x="81.81818181818181" y="120.37037037037037" width="36.36363636363636" height="46.2962962962963" as="geometry" />
        </mxCell>
        <mxCell id="a19_c-hU44nwaNDx6dK8-11" value="&lt;font style=&quot;font-size: 14px;&quot; face=&quot;Georgia&quot;&gt;User&lt;/font&gt;" style="text;html=1;whiteSpace=wrap;strokeColor=none;fillColor=none;align=center;verticalAlign=middle;rounded=0;" vertex="1" parent="a19_c-hU44nwaNDx6dK8-7">
          <mxGeometry x="60" y="170" width="80" height="30" as="geometry" />
        </mxCell>
        <mxCell id="a19_c-hU44nwaNDx6dK8-18" value="" style="group" vertex="1" connectable="0" parent="1">
          <mxGeometry x="250" y="80" width="220" height="250" as="geometry" />
        </mxCell>
        <mxCell id="a19_c-hU44nwaNDx6dK8-19" value="" style="verticalLabelPosition=bottom;html=1;verticalAlign=top;align=center;strokeColor=none;fillColor=#00BEF2;shape=mxgraph.azure.computer;pointerEvents=1;movable=1;resizable=1;rotatable=1;deletable=1;editable=1;locked=0;connectable=1;" vertex="1" parent="a19_c-hU44nwaNDx6dK8-18">
          <mxGeometry y="101.85185185185185" width="200" height="148.14814814814815" as="geometry" />
        </mxCell>
        <mxCell id="a19_c-hU44nwaNDx6dK8-20" value="" style="shape=image;html=1;verticalAlign=top;verticalLabelPosition=bottom;labelBackgroundColor=#ffffff;imageAspect=0;aspect=fixed;image=https://icons.diagrams.net/icon-cache1/Web_browsers-2003/Firefox-1122.png;movable=1;resizable=1;rotatable=1;deletable=1;editable=1;locked=0;connectable=1;" vertex="1" parent="a19_c-hU44nwaNDx6dK8-18">
          <mxGeometry x="63.63636363636363" y="9.25925925925926" width="72.72727272727272" height="72.72727272727272" as="geometry" />
        </mxCell>
        <mxCell id="a19_c-hU44nwaNDx6dK8-21" value="" style="shape=actor;whiteSpace=wrap;html=1;fillStyle=solid;fillColor=light-dark(#FFFFFF,#3B82F6);" vertex="1" parent="a19_c-hU44nwaNDx6dK8-18">
          <mxGeometry x="81.81818181818181" y="120.37037037037037" width="36.36363636363636" height="46.2962962962963" as="geometry" />
        </mxCell>
        <mxCell id="a19_c-hU44nwaNDx6dK8-22" value="&lt;font style=&quot;font-size: 14px;&quot; face=&quot;Georgia&quot;&gt;Admin&lt;/font&gt;" style="text;html=1;whiteSpace=wrap;strokeColor=none;fillColor=none;align=center;verticalAlign=middle;rounded=0;" vertex="1" parent="a19_c-hU44nwaNDx6dK8-18">
          <mxGeometry x="60" y="170" width="80" height="30" as="geometry" />
        </mxCell>
        <mxCell id="a19_c-hU44nwaNDx6dK8-28" value="" style="group" vertex="1" connectable="0" parent="1">
          <mxGeometry x="-425" y="350" width="230" height="275" as="geometry" />
        </mxCell>
        <mxCell id="a19_c-hU44nwaNDx6dK8-23" value="" style="shape=mxgraph.cisco.computers_and_peripherals.pc;sketch=0;html=1;pointerEvents=1;dashed=0;fillColor=light-dark(#036897,#EF4444);strokeColor=#ffffff;strokeWidth=2;verticalLabelPosition=bottom;verticalAlign=top;align=center;outlineConnect=0;" vertex="1" parent="a19_c-hU44nwaNDx6dK8-28">
          <mxGeometry width="230" height="240" as="geometry" />
        </mxCell>
        <mxCell id="a19_c-hU44nwaNDx6dK8-26" value="" style="shape=image;html=1;verticalAlign=top;verticalLabelPosition=bottom;labelBackgroundColor=#ffffff;imageAspect=0;aspect=fixed;image=https://icons.diagrams.net/icon-cache1/Ionicons_Outline_Vol_2-2191/terminal-outline-1079.svg" vertex="1" parent="a19_c-hU44nwaNDx6dK8-28">
          <mxGeometry x="60" y="40" width="90" height="90" as="geometry" />
        </mxCell>
        <mxCell id="a19_c-hU44nwaNDx6dK8-27" value="&lt;font size=&quot;3&quot; face=&quot;Georgia&quot;&gt;Kali (Burpe/ZAP)&lt;/font&gt;" style="text;html=1;whiteSpace=wrap;strokeColor=none;fillColor=none;align=center;verticalAlign=middle;rounded=0;" vertex="1" parent="a19_c-hU44nwaNDx6dK8-28">
          <mxGeometry x="70" y="250" width="50" height="25" as="geometry" />
        </mxCell>
        <mxCell id="a19_c-hU44nwaNDx6dK8-33" value="" style="group" vertex="1" connectable="0" parent="1">
          <mxGeometry x="-90" y="310" width="190" height="190" as="geometry" />
        </mxCell>
        <mxCell id="a19_c-hU44nwaNDx6dK8-30" value="" style="image;sketch=0;aspect=fixed;html=1;points=[];align=center;fontSize=12;image=img/lib/mscae/CustomDomain.svg;" vertex="1" parent="a19_c-hU44nwaNDx6dK8-33">
          <mxGeometry width="186.26705882352942" height="156.47058823529412" as="geometry" />
        </mxCell>
        <mxCell id="a19_c-hU44nwaNDx6dK8-31" value="&lt;font style=&quot;font-size: 14px;&quot; face=&quot;Georgia&quot;&gt;Nextcloud app&lt;/font&gt;" style="text;html=1;whiteSpace=wrap;strokeColor=none;fillColor=none;align=center;verticalAlign=middle;rounded=0;" vertex="1" parent="a19_c-hU44nwaNDx6dK8-33">
          <mxGeometry x="32.29749189967598" y="156.47058823529412" width="125.40501620064803" height="33.529411764705884" as="geometry" />
        </mxCell>
        <mxCell id="a19_c-hU44nwaNDx6dK8-36" value="" style="sketch=0;outlineConnect=0;fontColor=#ffffff;fillColor=#0050ef;strokeColor=#001DBC;dashed=0;verticalLabelPosition=bottom;verticalAlign=top;align=center;html=1;fontSize=12;fontStyle=0;aspect=fixed;pointerEvents=1;shape=mxgraph.aws4.rds_mariadb_instance;" vertex="1" parent="1">
          <mxGeometry x="200" y="410" width="160" height="160" as="geometry" />
        </mxCell>
        <mxCell id="a19_c-hU44nwaNDx6dK8-40" value="" style="group" vertex="1" connectable="0" parent="1">
          <mxGeometry x="480" y="440" width="158.53999999999996" height="170" as="geometry" />
        </mxCell>
        <mxCell id="a19_c-hU44nwaNDx6dK8-37" value="" style="image;sketch=0;aspect=fixed;html=1;points=[];align=center;fontSize=12;image=img/lib/mscae/Docker.svg;" vertex="1" parent="a19_c-hU44nwaNDx6dK8-40">
          <mxGeometry y="40" width="158.54" height="130" as="geometry" />
        </mxCell>
        <mxCell id="a19_c-hU44nwaNDx6dK8-38" value="" style="verticalLabelPosition=bottom;html=1;verticalAlign=top;align=center;strokeColor=none;fillColor=#00BEF2;shape=mxgraph.azure.virtual_network;pointerEvents=1;" vertex="1" parent="a19_c-hU44nwaNDx6dK8-40">
          <mxGeometry x="54.26999999999994" width="50" height="27.500000000000004" as="geometry" />
        </mxCell>
        <mxCell id="a19_c-hU44nwaNDx6dK8-42" value="" style="verticalLabelPosition=bottom;html=1;verticalAlign=top;strokeWidth=1;align=center;outlineConnect=0;dashed=0;outlineConnect=0;shape=mxgraph.aws3d.ebs;fillColor=#0050ef;strokeColor=light-dark(#001DBC, #000000);aspect=fixed;strokeColor2=light-dark(#292929, #000000);fontColor=#ffffff;" vertex="1" parent="1">
          <mxGeometry x="-200" y="690" width="176.33" height="115" as="geometry" />
        </mxCell>
        <mxCell id="a19_c-hU44nwaNDx6dK8-43" value="" style="verticalLabelPosition=bottom;html=1;verticalAlign=top;strokeWidth=1;align=center;outlineConnect=0;dashed=0;outlineConnect=0;shape=mxgraph.aws3d.ebs;fillColor=#0050ef;strokeColor=light-dark(#001DBC, #000000);aspect=fixed;strokeColor2=light-dark(#292929, #000000);fontColor=#ffffff;" vertex="1" parent="1">
          <mxGeometry x="350" y="700" width="176.33" height="115" as="geometry" />
        </mxCell>
        <mxCell id="a19_c-hU44nwaNDx6dK8-44" value="" style="verticalLabelPosition=bottom;html=1;verticalAlign=top;strokeWidth=1;align=center;outlineConnect=0;dashed=0;outlineConnect=0;shape=mxgraph.aws3d.ebs;fillColor=#0050ef;strokeColor=light-dark(#001DBC, #000000);aspect=fixed;strokeColor2=light-dark(#292929, #000000);fontColor=#ffffff;" vertex="1" parent="1">
          <mxGeometry x="60" y="690" width="176.33" height="115" as="geometry" />
        </mxCell>
      </root>
    </mxGraphModel>
  </diagram>
</mxfile>
